<svg width="90" height="18" viewBox="0 0 90 18" fill="none" xmlns="http://www.w3.org/2000/svg">
<path d="M11.394 0.291999L7.092 8.554V13H4.536V8.554L0.216 0.291999H3.132L5.832 5.854L8.532 0.291999H11.394ZM17.3616 2.902C18.3336 2.902 19.2036 3.106 19.9716 3.514C20.7516 3.922 21.3636 4.516 21.8076 5.296C22.2516 6.064 22.4736 6.97 22.4736 8.014C22.4736 9.058 22.2516 9.964 21.8076 10.732C21.3636 11.5 20.7516 12.094 19.9716 12.514C19.2036 12.922 18.3336 13.126 17.3616 13.126C16.3896 13.126 15.5136 12.922 14.7336 12.514C13.9656 12.094 13.3596 11.5 12.9156 10.732C12.4716 9.964 12.2496 9.058 12.2496 8.014C12.2496 6.97 12.4716 6.064 12.9156 5.296C13.3596 4.516 13.9656 3.922 14.7336 3.514C15.5136 3.106 16.3896 2.902 17.3616 2.902ZM17.3616 5.098C16.6536 5.098 16.0536 5.35 15.5616 5.854C15.0696 6.346 14.8236 7.066 14.8236 8.014C14.8236 8.962 15.0696 9.688 15.5616 10.192C16.0536 10.684 16.6536 10.93 17.3616 10.93C18.0696 10.93 18.6696 10.684 19.1616 10.192C19.6536 9.688 19.8996 8.962 19.8996 8.014C19.8996 7.066 19.6536 6.346 19.1616 5.854C18.6696 5.35 18.0696 5.098 17.3616 5.098ZM33.8072 3.028V13H31.2692V10.984C31.0052 11.656 30.5672 12.184 29.9552 12.568C29.3552 12.94 28.6592 13.126 27.8672 13.126C26.7152 13.126 25.7972 12.748 25.1132 11.992C24.4292 11.236 24.0872 10.18 24.0872 8.824V3.028H26.6072V8.536C26.6072 9.328 26.8112 9.946 27.2192 10.39C27.6272 10.822 28.1792 11.038 28.8752 11.038C29.6072 11.038 30.1892 10.804 30.6212 10.336C31.0532 9.868 31.2692 9.196 31.2692 8.32V3.028H33.8072ZM38.6529 4.936C39.0249 4.3 39.5169 3.802 40.1289 3.442C40.7409 3.07 41.4249 2.884 42.1809 2.884V5.602H41.4429C39.5829 5.602 38.6529 6.466 38.6529 8.194V13H36.1149V3.028H38.6529V4.936ZM50.0435 11.056H54.3095V13H47.5055V0.291999H50.0435V11.056ZM60.428 2.902C61.4 2.902 62.27 3.106 63.038 3.514C63.818 3.922 64.43 4.516 64.874 5.296C65.318 6.064 65.54 6.97 65.54 8.014C65.54 9.058 65.318 9.964 64.874 10.732C64.43 11.5 63.818 12.094 63.038 12.514C62.27 12.922 61.4 13.126 60.428 13.126C59.456 13.126 58.58 12.922 57.8 12.514C57.032 12.094 56.426 11.5 55.982 10.732C55.538 9.964 55.316 9.058 55.316 8.014C55.316 6.97 55.538 6.064 55.982 5.296C56.426 4.516 57.032 3.922 57.8 3.514C58.58 3.106 59.456 2.902 60.428 2.902ZM60.428 5.098C59.72 5.098 59.12 5.35 58.628 5.854C58.136 6.346 57.89 7.066 57.89 8.014C57.89 8.962 58.136 9.688 58.628 10.192C59.12 10.684 59.72 10.93 60.428 10.93C61.136 10.93 61.736 10.684 62.228 10.192C62.72 9.688 62.966 8.962 62.966 8.014C62.966 7.066 62.72 6.346 62.228 5.854C61.736 5.35 61.136 5.098 60.428 5.098ZM71.2396 2.902C72.0796 2.902 72.7996 3.1 73.3996 3.496C73.9996 3.892 74.4256 4.426 74.6776 5.098V3.028H77.1976V13.036C77.1976 13.96 77.0116 14.788 76.6396 15.52C76.2796 16.264 75.7336 16.846 75.0016 17.266C74.2816 17.686 73.4056 17.896 72.3736 17.896C70.9336 17.896 69.7696 17.554 68.8816 16.87C67.9936 16.186 67.4536 15.256 67.2616 14.08H69.7636C69.9076 14.584 70.1836 14.974 70.5916 15.25C71.0116 15.538 71.5456 15.682 72.1936 15.682C72.9376 15.682 73.5376 15.46 73.9936 15.016C74.4496 14.584 74.6776 13.924 74.6776 13.036V10.912C74.4256 11.584 73.9996 12.124 73.3996 12.532C72.7996 12.928 72.0796 13.126 71.2396 13.126C70.3996 13.126 69.6436 12.922 68.9716 12.514C68.2996 12.106 67.7716 11.518 67.3876 10.75C67.0156 9.97 66.8296 9.058 66.8296 8.014C66.8296 6.97 67.0156 6.064 67.3876 5.296C67.7716 4.516 68.2996 3.922 68.9716 3.514C69.6436 3.106 70.3996 2.902 71.2396 2.902ZM72.0316 5.116C71.2396 5.116 70.6036 5.374 70.1236 5.89C69.6436 6.406 69.4036 7.114 69.4036 8.014C69.4036 8.914 69.6436 9.622 70.1236 10.138C70.6036 10.642 71.2396 10.894 72.0316 10.894C72.7996 10.894 73.4296 10.636 73.9216 10.12C74.4256 9.592 74.6776 8.89 74.6776 8.014C74.6776 7.126 74.4256 6.424 73.9216 5.908C73.4296 5.38 72.7996 5.116 72.0316 5.116ZM84.1057 2.902C85.0777 2.902 85.9477 3.106 86.7157 3.514C87.4957 3.922 88.1077 4.516 88.5517 5.296C88.9957 6.064 89.2177 6.97 89.2177 8.014C89.2177 9.058 88.9957 9.964 88.5517 10.732C88.1077 11.5 87.4957 12.094 86.7157 12.514C85.9477 12.922 85.0777 13.126 84.1057 13.126C83.1337 13.126 82.2577 12.922 81.4777 12.514C80.7097 12.094 80.1037 11.5 79.6597 10.732C79.2157 9.964 78.9937 9.058 78.9937 8.014C78.9937 6.97 79.2157 6.064 79.6597 5.296C80.1037 4.516 80.7097 3.922 81.4777 3.514C82.2577 3.106 83.1337 2.902 84.1057 2.902ZM84.1057 5.098C83.3977 5.098 82.7977 5.35 82.3057 5.854C81.8137 6.346 81.5677 7.066 81.5677 8.014C81.5677 8.962 81.8137 9.688 82.3057 10.192C82.7977 10.684 83.3977 10.93 84.1057 10.93C84.8137 10.93 85.4137 10.684 85.9057 10.192C86.3977 9.688 86.6437 8.962 86.6437 8.014C86.6437 7.066 86.3977 6.346 85.9057 5.854C85.4137 5.35 84.8137 5.098 84.1057 5.098Z" fill="black"/>
</svg>
